<svg width="528" height="528" viewBox="0 0 528 528" fill="none" xmlns="http://www.w3.org/2000/svg">
<g clip-path="url(#clip0_34_2)">
<mask id="mask0_34_2" style="mask-type:luminance" maskUnits="userSpaceOnUse" x="0" y="0" width="528" height="528">
<path d="M528 0H0V528H528V0Z" fill="white"/>
</mask>
<g mask="url(#mask0_34_2)">
<path d="M223.781 80.4375C213.881 101.062 208.106 124.369 208.106 148.706C208.106 235.95 279.056 306.488 366.506 306.488C397.65 306.488 426.731 297.412 451.275 281.944C441.375 375.375 361.762 448.387 265.238 448.387C162.112 448.387 78.375 365.062 78.375 262.144C78.375 173.456 140.456 99.2063 223.781 80.4375Z" fill="#FFC82F"/>
<g opacity="0.266667">
<path d="M261.938 85.5938C269.342 87.8419 275.137 93.6581 277.406 101.062C279.675 93.6581 285.471 87.8625 292.875 85.5938C285.471 83.325 279.675 77.5294 277.406 70.125C275.137 77.5294 269.342 83.325 261.938 85.5938Z" fill="#FFC82F"/>
</g>
<g opacity="0.391304">
<path d="M45.375 340.312C52.2844 342.416 57.7087 347.841 59.8125 354.75C61.9163 347.841 67.3406 342.416 74.25 340.312C67.3406 338.209 61.9163 332.784 59.8125 325.875C57.7087 332.784 52.2844 338.209 45.375 340.312Z" fill="#FFC82F"/>
</g>
<g opacity="0.24">
<path d="M393.938 431.062C402.827 433.764 409.798 440.736 412.5 449.625C415.222 440.736 422.173 433.785 431.062 431.062C422.173 428.34 415.222 421.389 412.5 412.5C409.798 421.389 402.827 428.34 393.938 431.062Z" fill="#FFC82F"/>
</g>
<path d="M213.563 481.882H117.038C87.3175 481.882 63.2068 458.638 63.2068 429.969C63.2068 401.301 87.3175 378.056 117.038 378.056C126.01 378.056 134.466 380.16 141.912 383.914C152.266 354.936 180.79 334.125 214.367 334.125C256.669 334.125 290.969 367.208 290.969 408.004C290.969 408.829 290.948 409.674 290.927 410.499C303.282 416.893 311.676 429.474 311.676 443.933C311.676 464.887 294.062 481.882 272.344 481.882H214.367C214.244 481.882 213.563 481.882 213.563 481.882Z" fill="#E8E8E8"/>
<path d="M213.563 481.882H117.038C87.3175 481.882 63.2068 458.638 63.2068 429.969C63.2068 401.301 87.3175 378.056 117.038 378.056C126.01 378.056 134.466 380.16 141.912 383.914C152.266 354.936 180.79 334.125 214.367 334.125C256.669 334.125 290.969 367.208 290.969 408.004C290.969 408.829 290.948 409.674 290.927 410.499C303.282 416.893 311.676 429.474 311.676 443.933C311.676 464.888 294.062 481.882 272.344 481.882H214.367M213.563 481.882C213.563 481.882 214.244 481.882 214.367 481.882M213.563 481.882H214.367" stroke="white" stroke-width="14.4375"/>
<path d="M407.873 220.894H334.984C312.544 220.894 294.332 203.342 294.332 181.686C294.332 160.029 312.544 142.478 334.984 142.478C341.769 142.478 348.163 144.086 353.773 146.912C361.59 125.029 383.143 109.312 408.491 109.312C440.439 109.312 466.344 134.289 466.344 165.103C466.344 165.743 466.324 166.361 466.303 166.98C475.626 171.827 481.978 181.314 481.978 192.246C481.978 208.065 468.675 220.894 452.258 220.894H408.491C408.388 220.894 407.873 220.894 407.873 220.894Z" fill="#E8E8E8"/>
<path d="M407.873 220.894H334.984C312.544 220.894 294.332 203.342 294.332 181.686C294.332 160.029 312.544 142.477 334.984 142.477C341.769 142.477 348.163 144.086 353.773 146.912C361.59 125.029 383.143 109.312 408.491 109.312C440.439 109.312 466.344 134.289 466.344 165.103C466.344 165.743 466.324 166.361 466.303 166.98C475.626 171.827 481.978 181.314 481.978 192.246C481.978 208.065 468.675 220.894 452.258 220.894H408.491M407.873 220.894C407.873 220.894 408.388 220.894 408.491 220.894M407.873 220.894H408.491" stroke="white" stroke-width="14.4375"/>
<path d="M113.317 186.182H51.3391C32.2404 186.182 16.7716 171.249 16.7716 152.852C16.7716 134.434 32.2404 119.522 51.3391 119.522C57.0935 119.522 62.5385 120.863 67.3029 123.276C73.9647 104.672 92.2797 91.3069 113.833 91.3069C140.996 91.3069 163.023 112.551 163.023 138.744C163.023 139.281 163.023 139.817 163.003 140.353C170.923 144.458 176.327 152.543 176.327 161.824C176.327 175.271 165.024 186.182 151.061 186.182H113.833C113.75 186.182 113.317 186.182 113.317 186.182Z" fill="#E8E8E8"/>
<path d="M113.317 186.182H51.3391C32.2404 186.182 16.7716 171.249 16.7716 152.852C16.7716 134.434 32.2404 119.522 51.3391 119.522C57.0935 119.522 62.5385 120.863 67.3029 123.276C73.9647 104.672 92.2797 91.3069 113.833 91.3069C140.996 91.3069 163.023 112.551 163.023 138.744C163.023 139.281 163.023 139.817 163.003 140.353C170.923 144.458 176.327 152.543 176.327 161.824C176.327 175.271 165.024 186.182 151.061 186.182H113.833M113.317 186.182C113.317 186.182 113.75 186.182 113.833 186.182M113.317 186.182H113.833" stroke="white" stroke-width="12.375"/>
</g>
</g>
<defs>
<clipPath id="clip0_34_2">
<rect width="528" height="528" fill="white"/>
</clipPath>
</defs>
</svg>
